# xmcd
#
# Track frame offsets: 
#        150
#        14957
#        29720
#        35797
#        41312
#        47187
#
# Disc length: 702 seconds
#
# Revision: 0
# Processed by: cddbd v1.5.2PL0 Copyright (c) Steve Scherf et al.
# Submitted via: ExactAudioCopyFreeDBPlugin 1.0
#
DISCID=5402bc06
DTITLE=Black Buddafly - Album Sampler
DYEAR=2005
DGENRE=R&B
TTITLE0=Rock-A-Bye
TTITLE1=Sheets And Pillows
TTITLE2=Sugar Buddy (Snippet)
TTITLE3=Anything At All (Snippet)
TTITLE4=Make A Change (Snippet)
TTITLE5=If I Ever (Snippet)
EXTD=
EXTT0=
EXTT1=
EXTT2=
EXTT3=
EXTT4=
EXTT5=
PLAYORDER=
